<svg width="252" height="252" viewBox="0 0 252 252" fill="none" xmlns="http://www.w3.org/2000/svg">
<style>
  .blue-mark { display: block; }
  .green-mark { display: none; }
  @media (prefers-color-scheme: dark) {
    .blue-mark { display: none; }
    .green-mark { display: block; }
  }
</style>
<g class="blue-mark">
  <path d="M119.131 187.825C121.072 188.037 123.04 188.164 125.027 188.19V251.049C114.814 250.986 104.893 249.676 95.4007 247.287L119.131 187.825Z" fill="#103761"/>
  <path d="M96.2523 180.797C98.0376 181.754 99.8833 182.632 101.788 183.42L78.4906 241.804C68.8912 237.904 60.0454 232.929 52.0234 227.084L96.2523 180.797Z" fill="#103761"/>
  <path d="M77.5548 165.603C78.8841 167.204 80.3032 168.751 81.8164 170.235L38.3876 215.68C30.8543 208.391 24.4486 200.369 19.1572 191.839L77.5548 165.603Z" fill="#103761"/>
  <path d="M126.009 0.24707C195.266 0.247815 251.409 56.3924 251.409 125.649C251.409 143.585 247.641 160.64 240.857 176.07L183.665 150.309C186.908 142.74 188.707 134.405 188.707 125.649C188.707 91.0217 160.636 62.95 126.009 62.9493C91.3816 62.9493 63.3097 91.0212 63.3096 125.649C63.3098 134.406 65.1065 142.742 68.3491 150.312L11.1778 176.114C4.38192 160.673 0.607551 143.602 0.607422 125.649C0.607454 56.3919 56.7523 0.247103 126.009 0.24707Z" fill="#103761"/>
</g>
<g class="green-mark">
  <path d="M119.131 188.123C121.072 188.335 123.04 188.462 125.027 188.487V251.347C114.814 251.284 104.893 249.974 95.4007 247.585L119.131 188.123Z" fill="#AEDC91"/>
  <path d="M96.2523 181.095C98.0376 182.051 99.8833 182.93 101.788 183.718L78.4906 242.102C68.8912 238.202 60.0454 233.227 52.0234 227.381L96.2523 181.095Z" fill="#AEDC91"/>
  <path d="M77.5548 165.901C78.8841 167.502 80.3032 169.049 81.8164 170.532L38.3876 215.977C30.8543 208.688 24.4486 200.666 19.1572 192.136L77.5548 165.901Z" fill="#AEDC91"/>
  <path d="M126.009 0.544922C195.266 0.545667 251.409 56.6902 251.409 125.947C251.409 143.883 247.641 160.938 240.857 176.368L183.665 150.607C186.908 143.038 188.707 134.703 188.707 125.947C188.707 91.3195 160.636 63.2479 126.009 63.2471C91.3816 63.2472 63.3097 91.3191 63.3096 125.947C63.3098 134.704 65.1065 143.04 68.3491 150.61L11.1778 176.411C4.38192 160.97 0.607551 143.9 0.607422 125.947C0.607454 56.6898 56.7523 0.544954 126.009 0.544922Z" fill="#AEDC91"/>
</g>
</svg>
